<svg width="367" height="87" viewBox="0 0 367 87" fill="none" xmlns="http://www.w3.org/2000/svg">
<path d="M19.941 23.304C23.7383 23.304 26.853 23.7947 29.285 24.776C31.7597 25.7147 33.5943 27.144 34.789 29.064C35.9837 30.984 36.581 33.3947 36.581 36.296C36.581 38.728 36.133 40.7547 35.237 42.376C34.341 43.9973 33.189 45.2987 31.781 46.28C30.4157 47.2187 28.965 47.9653 27.429 48.52L39.973 69H33.253L22.181 50.12H13.093V69H7.333V23.304H19.941ZM19.621 28.296H13.093V45.256H19.941C22.4157 45.256 24.4423 44.936 26.021 44.296C27.5997 43.6133 28.7517 42.632 29.477 41.352C30.245 40.072 30.629 38.472 30.629 36.552C30.629 34.5467 30.2237 32.9467 29.413 31.752C28.645 30.5573 27.4503 29.6827 25.829 29.128C24.2077 28.5733 22.1383 28.296 19.621 28.296ZM59.3695 34.12C63.5508 34.12 66.6442 35.0373 68.6495 36.872C70.6548 38.7067 71.6575 41.6293 71.6575 45.64V69H67.5615L66.4735 64.136H66.2175C65.2362 65.3733 64.2122 66.4187 63.1455 67.272C62.1215 68.0827 60.9268 68.68 59.5615 69.064C58.2388 69.448 56.6175 69.64 54.6975 69.64C52.6495 69.64 50.7935 69.2773 49.1295 68.552C47.5082 67.8267 46.2282 66.7173 45.2895 65.224C44.3508 63.688 43.8815 61.768 43.8815 59.464C43.8815 56.0507 45.2255 53.4267 47.9135 51.592C50.6015 49.7147 54.7402 48.6907 60.3295 48.52L66.1535 48.328V46.28C66.1535 43.4213 65.5348 41.4373 64.2975 40.328C63.0602 39.2187 61.3108 38.664 59.0495 38.664C57.2575 38.664 55.5508 38.9413 53.9295 39.496C52.3082 40.008 50.7935 40.6053 49.3855 41.288L47.6575 37.064C49.1508 36.2533 50.9215 35.5707 52.9695 35.016C55.0175 34.4187 57.1508 34.12 59.3695 34.12ZM61.0335 52.424C56.7668 52.5947 53.8015 53.2773 52.1375 54.472C50.5162 55.6667 49.7055 57.352 49.7055 59.528C49.7055 61.448 50.2815 62.856 51.4335 63.752C52.6282 64.648 54.1428 65.096 55.9775 65.096C58.8788 65.096 61.2895 64.3067 63.2095 62.728C65.1295 61.1067 66.0895 58.632 66.0895 55.304V52.232L61.0335 52.424ZM110.925 34.696V69H106.317L105.485 64.456H105.229C104.503 65.6507 103.565 66.632 102.413 67.4C101.261 68.168 100.002 68.7227 98.6365 69.064C97.2712 69.448 95.8418 69.64 94.3485 69.64C91.6178 69.64 89.3138 69.2133 87.4365 68.36C85.6018 67.464 84.2152 66.0987 83.2765 64.264C82.3378 62.4293 81.8685 60.0613 81.8685 57.16V34.696H87.5645V56.776C87.5645 59.5067 88.1832 61.5547 89.4205 62.92C90.6578 64.2853 92.5778 64.968 95.1805 64.968C97.7405 64.968 99.7458 64.4987 101.197 63.56C102.69 62.5787 103.735 61.1707 104.333 59.336C104.973 57.4587 105.293 55.1973 105.293 52.552V34.696H110.925ZM127.447 69H121.815V20.36H127.447V69Z" fill="#1ABC9C"/>
<path d="M154.207 68L144.671 32.16H144.415C144.457 33.0133 144.521 34.2933 144.607 36C144.692 37.7067 144.777 39.5413 144.863 41.504C144.948 43.424 144.991 45.1733 144.991 46.752V68H135.775V22.304H149.727L159.263 57.248H159.455L169.247 22.304H183.199V68H173.599V46.368C173.599 44.9173 173.62 43.2533 173.663 41.376C173.705 39.4987 173.769 37.728 173.855 36.064C173.94 34.3573 174.004 33.0773 174.047 32.224H173.791L163.935 68H154.207ZM207.481 32.352C211.791 32.352 215.119 33.376 217.465 35.424C219.855 37.4293 221.049 40.5227 221.049 44.704V68H213.945L211.961 63.264H211.705C210.767 64.5013 209.807 65.5253 208.825 66.336C207.844 67.1467 206.713 67.7227 205.433 68.064C204.153 68.448 202.596 68.64 200.761 68.64C198.841 68.64 197.113 68.256 195.577 67.488C194.084 66.6773 192.889 65.4613 191.993 63.84C191.097 62.176 190.649 60.0853 190.649 57.568C190.649 53.856 191.865 51.1253 194.297 49.376C196.772 47.584 200.399 46.6027 205.177 46.432L210.809 46.24V44.704C210.809 42.8693 210.404 41.5253 209.593 40.672C208.783 39.8187 207.673 39.392 206.265 39.392C204.815 39.392 203.3 39.648 201.721 40.16C200.143 40.6293 198.564 41.2267 196.985 41.952L193.849 35.488C195.727 34.5067 197.796 33.7387 200.057 33.184C202.361 32.6293 204.836 32.352 207.481 32.352ZM207.865 51.936C205.348 52.0213 203.577 52.576 202.553 53.6C201.572 54.624 201.081 55.968 201.081 57.632C201.081 59.0827 201.423 60.128 202.105 60.768C202.831 61.3653 203.769 61.664 204.921 61.664C206.543 61.664 207.929 61.0667 209.081 59.872C210.276 58.6347 210.873 56.9067 210.873 54.688V51.808L207.865 51.936ZM239.939 68.64C236.397 68.64 233.496 67.1253 231.235 64.096C228.973 61.024 227.843 56.5227 227.843 50.592C227.843 44.6187 228.995 40.096 231.299 37.024C233.603 33.952 236.589 32.416 240.259 32.416C241.795 32.416 243.117 32.6507 244.227 33.12C245.379 33.5467 246.36 34.144 247.171 34.912C248.024 35.68 248.749 36.5547 249.347 37.536H249.603C249.475 36.8533 249.347 35.872 249.219 34.592C249.091 33.2693 249.027 31.9253 249.027 30.56V19.36H259.267V68H251.523L249.411 63.456H249.027C248.472 64.3947 247.789 65.2693 246.979 66.08C246.168 66.848 245.187 67.4667 244.035 67.936C242.883 68.4053 241.517 68.64 239.939 68.64ZM243.843 61.024C245.976 61.024 247.491 60.256 248.387 58.72C249.325 57.1413 249.795 54.7947 249.795 51.68V50.656C249.795 47.2427 249.368 44.64 248.515 42.848C247.661 41.056 246.061 40.16 243.715 40.16C242.051 40.16 240.707 41.0773 239.683 42.912C238.701 44.704 238.211 47.3067 238.211 50.72C238.211 54.1333 238.701 56.7147 239.683 58.464C240.707 60.1707 242.093 61.024 243.843 61.024ZM282.218 32.416C285.332 32.416 288.02 33.0347 290.282 34.272C292.543 35.5093 294.292 37.3013 295.53 39.648C296.767 41.9947 297.386 44.8747 297.386 48.288V52.896H276.586C276.671 55.584 277.354 57.696 278.634 59.232C279.956 60.768 281.834 61.536 284.266 61.536C286.399 61.536 288.319 61.3227 290.026 60.896C291.775 60.4267 293.567 59.7227 295.402 58.784V66.144C293.823 66.9973 292.095 67.616 290.218 68C288.383 68.4267 286.1 68.64 283.37 68.64C280.042 68.64 277.076 68 274.474 66.72C271.914 65.3973 269.887 63.4133 268.394 60.768C266.943 58.1227 266.218 54.7947 266.218 50.784C266.218 46.688 266.879 43.296 268.202 40.608C269.567 37.8773 271.444 35.8293 273.834 34.464C276.266 33.0987 279.06 32.416 282.218 32.416ZM282.41 39.2C280.874 39.2 279.594 39.7973 278.57 40.992C277.546 42.1867 276.948 44.0427 276.778 46.56H287.978C287.978 45.152 287.764 43.8933 287.338 42.784C286.911 41.6747 286.292 40.8 285.482 40.16C284.671 39.52 283.647 39.2 282.41 39.2ZM323.521 32.416C324.075 32.416 324.673 32.4373 325.313 32.48C325.953 32.5227 326.443 32.5867 326.785 32.672L325.953 41.632C325.611 41.5467 325.163 41.4827 324.609 41.44C324.054 41.3547 323.414 41.312 322.689 41.312C321.75 41.312 320.79 41.4827 319.809 41.824C318.87 42.1227 317.995 42.6133 317.185 43.296C316.417 43.9787 315.777 44.896 315.265 46.048C314.795 47.1573 314.561 48.544 314.561 50.208V68H304.321V33.056H312.001L313.537 38.944H314.049C314.689 37.7493 315.478 36.6613 316.417 35.68C317.355 34.6987 318.422 33.9093 319.617 33.312C320.854 32.7147 322.155 32.416 323.521 32.416ZM361.667 50.464C361.667 53.3653 361.283 55.9467 360.515 58.208C359.79 60.4693 358.723 62.3893 357.315 63.968C355.907 65.504 354.179 66.6773 352.131 67.488C350.126 68.256 347.865 68.64 345.347 68.64C343.001 68.64 340.825 68.256 338.819 67.488C336.814 66.6773 335.086 65.504 333.635 63.968C332.227 62.3893 331.118 60.4693 330.307 58.208C329.539 55.9467 329.155 53.3653 329.155 50.464C329.155 46.5813 329.817 43.3173 331.139 40.672C332.462 37.984 334.339 35.936 336.771 34.528C339.203 33.12 342.126 32.416 345.539 32.416C348.697 32.416 351.47 33.12 353.859 34.528C356.291 35.936 358.19 37.984 359.555 40.672C360.963 43.3173 361.667 46.5813 361.667 50.464ZM339.587 50.464C339.587 52.768 339.779 54.7093 340.163 56.288C340.59 57.824 341.23 58.9973 342.083 59.808C342.979 60.576 344.11 60.96 345.475 60.96C346.883 60.96 347.993 60.576 348.803 59.808C349.657 58.9973 350.275 57.824 350.659 56.288C351.043 54.7093 351.235 52.768 351.235 50.464C351.235 48.16 351.043 46.24 350.659 44.704C350.275 43.168 349.635 42.016 348.739 41.248C347.886 40.48 346.777 40.096 345.411 40.096C343.321 40.096 341.827 40.9707 340.931 42.72C340.035 44.4267 339.587 47.008 339.587 50.464Z" fill="#1ABC9C"/>
</svg>
